<?xml version="1.0" encoding="UTF-8"?>
<svg version="1.1" xmlns="http://www.w3.org/2000/svg" width="246" height="88">
<path d="M0 0 C49.5 0 99 0 150 0 C150.99 2.475 150.99 2.475 152 5 C152.52722656 5.49628906 153.05445313 5.99257813 153.59765625 6.50390625 C156.06669182 9.13800269 155.45706073 12.18984526 155.3671875 15.625 C154.87082437 18.83551898 153.54556571 20.07154113 151 22 C150.67 22.99 150.34 23.98 150 25 C130.49430938 25.11670997 110.98868944 25.20492757 91.48272228 25.25906086 C82.42610706 25.28486202 73.36970856 25.32004885 64.31323242 25.37719727 C56.4212231 25.42697396 48.52937069 25.4592771 40.63720876 25.47044247 C36.45680116 25.47697105 32.27684254 25.49235401 28.0965786 25.52865028 C24.16406457 25.56251964 20.23218559 25.57307162 16.29953957 25.56553841 C14.85430071 25.56691705 13.40904121 25.57690417 11.96392822 25.59602737 C9.99455525 25.62081572 8.02484359 25.61196323 6.05534363 25.60127258 C4.95195743 25.60588155 3.84857122 25.61049051 2.71174908 25.61523914 C0 25 0 25 -1.73002148 22.64210796 C-2.14911439 21.77021234 -2.5682073 20.89831671 -3 20 C-4.175625 18.576875 -4.175625 18.576875 -5.375 17.125 C-7 14 -7 14 -5.9375 10.3125 C-4.37277882 7.63733152 -3.17184176 6.07312168 -1 4 C-0.67 2.68 -0.34 1.36 0 0 Z " fill="#F5A918" transform="translate(85,48)"/>
<path d="M0 0 C1 1 1 1 1.125 4.4375 C1 8 1 8 0 10 C4.95 10.495 4.95 10.495 10 11 C10 12.32 10 13.64 10 15 C7.03 15.66 4.06 16.32 1 17 C1.10997314 17.94617188 1.21994629 18.89234375 1.33325195 19.8671875 C4.12253723 46.1046432 4.12253723 46.1046432 -1.02880859 54.18066406 C-6.40085713 59.68403613 -12.93633954 63.9539665 -20 67 C-20.66 67 -21.32 67 -22 67 C-20.75623242 60.62569117 -16.91668739 57.76268804 -12 54 C-11.11018433 53.61799438 -11.11018433 53.61799438 -10.20239258 53.22827148 C-7.83371549 52.04619976 -6.58816836 51.14404048 -5 49 C-3.95837919 43.73983435 -4.01908835 38.52356499 -4.0625 33.1875 C-4.04938434 31.7167653 -4.03314112 30.24605494 -4.01367188 28.77539062 C-3.97291309 25.18316427 -3.97495343 21.59243905 -4 18 C-6.31 18 -8.62 18 -11 18 C-11 21.96 -11 25.92 -11 30 C-18.65851004 32.13725862 -25.06270188 33.35017492 -33 33 C-33 36.63 -33 40.26 -33 44 C-35.31 44 -37.62 44 -40 44 C-40.02687279 42.18757948 -40.04633715 40.37504767 -40.0625 38.5625 C-40.07410156 37.55316406 -40.08570312 36.54382812 -40.09765625 35.50390625 C-40 33 -40 33 -39 32 C-40.32 31.34 -41.64 30.68 -43 30 C-43 26.04 -43 22.08 -43 18 C-45.64 18 -48.28 18 -51 18 C-52.68519326 35.27755482 -52.68519326 35.27755482 -48.51269531 51.48339844 C-45.52288644 54.5300658 -42.25564274 56.43588613 -38.44140625 58.29296875 C-35 60 -35 60 -33.46484375 62.05078125 C-33 64 -33 64 -34 67 C-35.04800781 66.25943359 -35.04800781 66.25943359 -36.1171875 65.50390625 C-37.02726562 64.86324219 -37.93734375 64.22257812 -38.875 63.5625 C-39.77992187 62.92441406 -40.68484375 62.28632812 -41.6171875 61.62890625 C-43.87738581 60.00481862 -43.87738581 60.00481862 -46 59 C-46 58.34 -46 57.68 -46 57 C-46.53625 56.7525 -47.0725 56.505 -47.625 56.25 C-48.40875 55.8375 -49.1925 55.425 -50 55 C-51.03141113 54.47567383 -52.06282227 53.95134766 -53.12548828 53.41113281 C-56 51 -56 51 -56.58935547 47.42480469 C-56.5466585 46.00587073 -56.47065425 44.58767557 -56.3671875 43.171875 C-56.33650177 42.42286926 -56.30581604 41.67386353 -56.27420044 40.90216064 C-56.16982939 38.51572741 -56.02304387 36.13408315 -55.875 33.75 C-55.7966712 32.13034169 -55.7211179 30.5105466 -55.6484375 28.890625 C-55.46443143 24.92477859 -55.24236833 20.96269049 -55 17 C-59.455 16.01 -59.455 16.01 -64 15 C-64 13.68 -64 12.36 -64 11 C-61.36 10.34 -58.72 9.68 -56 9 C-55.67 6.03 -55.34 3.06 -55 0 C-35.77393559 -4.10156041 -19.17805451 -5.33732711 0 0 Z M-35.08203125 0.875 C-36.01337891 1.05546875 -36.94472656 1.2359375 -37.90429688 1.421875 C-39.34385742 1.70804688 -39.34385742 1.70804688 -40.8125 2 C-41.79154297 2.19078125 -42.77058594 2.3815625 -43.77929688 2.578125 C-46.18704428 3.04792937 -48.59386567 3.52201479 -51 4 C-51.33 5.65 -51.66 7.3 -52 9 C-47.05 8.34 -42.1 7.68 -37 7 C-37.9375 20.39285714 -37.9375 20.39285714 -39 24 C-37.35 24 -35.7 24 -34 24 C-34.16371094 23.47921875 -34.32742187 22.9584375 -34.49609375 22.421875 C-35.14058659 19.3243125 -35.09411589 16.41158906 -35.0625 13.25 C-35.05347656 12.07953125 -35.04445313 10.9090625 -35.03515625 9.703125 C-35.02355469 8.81109375 -35.01195313 7.9190625 -35 7 C-27.63680465 4.54560155 -19.45586222 6.35848178 -12 7.5 C-11.03449219 7.64308594 -10.06898437 7.78617188 -9.07421875 7.93359375 C-6.71532665 8.28392426 -4.35735455 8.6394935 -2 9 C-2.66 8.67 -3.32 8.34 -4 8 C-4 6.68 -4 5.36 -4 4 C-7.39436356 3.32570033 -10.79070193 2.6619172 -14.1875 2 C-15.62706055 1.71382812 -15.62706055 1.71382812 -17.09570312 1.421875 C-18.02705078 1.24140625 -18.95839844 1.0609375 -19.91796875 0.875 C-20.77156982 0.70742187 -21.6251709 0.53984375 -22.50463867 0.3671875 C-26.88321162 -0.27711088 -30.75481668 0.02548548 -35.08203125 0.875 Z " fill="#2D4187" transform="translate(67,11)"/>
<path d="M0 0 C1.134375 0.020625 2.26875 0.04125 3.4375 0.0625 C3.78683594 0.90554688 4.13617188 1.74859375 4.49609375 2.6171875 C4.95113281 3.71289062 5.40617187 4.80859375 5.875 5.9375 C6.55369141 7.57332031 6.55369141 7.57332031 7.24609375 9.2421875 C7.93293463 10.86808624 8.64815887 12.48381774 9.4375 14.0625 C11.0875 9.4425 12.7375 4.8225 14.4375 0.0625 C17.0775 0.0625 19.7175 0.0625 22.4375 0.0625 C22.4375 8.3125 22.4375 16.5625 22.4375 25.0625 C20.4575 25.0625 18.4775 25.0625 16.4375 25.0625 C16.1075 22.0925 15.7775 19.1225 15.4375 16.0625 C13.4575 20.5175 13.4575 20.5175 11.4375 25.0625 C9.7875 25.0625 8.1375 25.0625 6.4375 25.0625 C5.4475 22.4225 4.4575 19.7825 3.4375 17.0625 C3.1075 19.7025 2.7775 22.3425 2.4375 25.0625 C0.1275 25.0625 -2.1825 25.0625 -4.5625 25.0625 C-4.59136984 21.08334841 -4.60925406 17.10422347 -4.625 13.125 C-4.63337891 11.98869141 -4.64175781 10.85238281 -4.65039062 9.68164062 C-4.65361328 8.60205078 -4.65683594 7.52246094 -4.66015625 6.41015625 C-4.66539307 5.40992432 -4.67062988 4.40969238 -4.67602539 3.37915039 C-4.48993261 -0.41834298 -3.95541169 0.06939319 0 0 Z " fill="#2E4185" transform="translate(89.5625,14.9375)"/>
<path d="M0 0 C2.64 0 5.28 0 8 0 C9.65 4.62 11.3 9.24 13 14 C13.33 12.68 13.66 11.36 14 10 C14.66 10 15.32 10 16 10 C16.13277344 9.36191406 16.26554687 8.72382813 16.40234375 8.06640625 C16.57894531 7.24011719 16.75554687 6.41382813 16.9375 5.5625 C17.19853516 4.32693359 17.19853516 4.32693359 17.46484375 3.06640625 C18 1 18 1 19 0 C21.31 0 23.62 0 26 0 C26 8.25 26 16.5 26 25 C24.02 25 22.04 25 20 25 C19.40267181 22.23735711 19 19.83967231 19 17 C18.01 19.64 17.02 22.28 16 25 C14.35 25 12.7 25 11 25 C9.68 22.03 8.36 19.06 7 16 C6.67 18.97 6.34 21.94 6 25 C4.02 25 2.04 25 0 25 C0 16.75 0 8.5 0 0 Z " fill="#2D4086" transform="translate(144,15)"/>
<path d="M0 0 C1.13953125 -0.03738281 2.2790625 -0.07476562 3.453125 -0.11328125 C7.39435727 0.39571676 9.00957561 1.48021781 11.75 4.3125 C12.0625 7.3125 12.0625 7.3125 11.75 10.3125 C11.75 11.6325 11.75 12.9525 11.75 14.3125 C12.08 14.6425 12.41 14.9725 12.75 15.3125 C12.39966868 21.6184637 12.39966868 21.6184637 10.1484375 24.0234375 C6.85307409 25.79456116 4.2807271 25.6395617 0.5625 25.5625 C-0.68917969 25.54703125 -1.94085938 25.5315625 -3.23046875 25.515625 C-6.25 25.3125 -6.25 25.3125 -7.25 24.3125 C-7.34932153 22.61691274 -7.38080007 20.91724253 -7.3828125 19.21875 C-7.38474609 17.67380859 -7.38474609 17.67380859 -7.38671875 16.09765625 C-7.38285156 15.01355469 -7.37898437 13.92945313 -7.375 12.8125 C-7.37886719 11.72839844 -7.38273438 10.64429688 -7.38671875 9.52734375 C-7.38542969 8.49738281 -7.38414062 7.46742187 -7.3828125 6.40625 C-7.38168457 5.45427734 -7.38055664 4.50230469 -7.37939453 3.52148438 C-7.11415047 -1.00668221 -3.86459217 0.08231755 0 0 Z M-0.25 5.3125 C-0.25 6.9625 -0.25 8.6125 -0.25 10.3125 C1.4 10.3125 3.05 10.3125 4.75 10.3125 C5.08 8.9925 5.41 7.6725 5.75 6.3125 C2.78 5.8175 2.78 5.8175 -0.25 5.3125 Z M-0.25 15.3125 C-0.25 16.9625 -0.25 18.6125 -0.25 20.3125 C1.4 20.3125 3.05 20.3125 4.75 20.3125 C5.08 18.6625 5.41 17.0125 5.75 15.3125 C3.77 15.3125 1.79 15.3125 -0.25 15.3125 Z " fill="#2F4185" transform="translate(180.25,14.6875)"/>
<path d="M0 0 C13.65517241 -0.4137931 13.65517241 -0.4137931 18 3 C18.9375 6 18.9375 6 19 9 C18.01 10.485 18.01 10.485 17 12 C17.99 13.485 17.99 13.485 19 15 C19.445239 18.4877055 19.51663107 20.26963578 17.4609375 23.17578125 C14.11680952 25.65468247 11.2273893 25.44397712 7.25 25.25 C4.8575 25.1675 2.465 25.085 0 25 C0 16.75 0 8.5 0 0 Z M6 5 C6 6.65 6 8.3 6 10 C8.41619823 10.25030977 8.41619823 10.25030977 11 10 C11.66 9.01 12.32 8.02 13 7 C11.16116119 4.71271266 11.16116119 4.71271266 8.375 4.875 C7.199375 4.936875 7.199375 4.936875 6 5 Z M6 15 C6 16.65 6 18.3 6 20 C7.98 20 9.96 20 12 20 C12.59070014 18.05396726 12.59070014 18.05396726 13 16 C11.87465895 14.64381501 11.87465895 14.64381501 8.9375 14.9375 C7.968125 14.958125 6.99875 14.97875 6 15 Z " fill="#2D4086" transform="translate(195,15)"/>
<path d="M0 0 C3.0625 1.6875 3.0625 1.6875 5 4 C5.3125 6.75 5.3125 6.75 5 9 C2.625 9.1875 2.625 9.1875 0 9 C-0.66 8.01 -1.32 7.02 -2 6 C-4.56282742 5.27034634 -4.56282742 5.27034634 -7 5 C-6.31751672 8.14601947 -6.31751672 8.14601947 -3.75 9.31640625 C-2.8425 9.72761719 -1.935 10.13882812 -1 10.5625 C3.89788408 12.79576817 3.89788408 12.79576817 5 15 C5.4375 18.375 5.4375 18.375 5 22 C1.26824778 25.37634724 -2.03460494 26.52710523 -7 27 C-7 26.34 -7 25.68 -7 25 C-8.175625 24.566875 -8.175625 24.566875 -9.375 24.125 C-12 23 -12 23 -14 21 C-14.125 18.375 -14.125 18.375 -14 16 C-12.02 16 -10.04 16 -8 16 C-7.67 16.99 -7.34 17.98 -7 19 C-5.02 19.33 -3.04 19.66 -1 20 C-1.67864579 16.85933888 -1.67864579 16.85933888 -4.21484375 15.71875 C-5.11332031 15.3165625 -6.01179687 14.914375 -6.9375 14.5 C-11.78370979 12.32443532 -11.78370979 12.32443532 -14 9 C-13.86294821 5.71075711 -13.57495811 3.71869763 -11.5 1.125 C-7.67041215 -0.59831453 -4.12451227 -0.66050908 0 0 Z " fill="#2C4086" transform="translate(230,15)"/>
<path d="M0 0 C1 1 1 1 1.0625 4.5625 C1.041875 5.696875 1.02125 6.83125 1 8 C0.01 8.33 -0.98 8.66 -2 9 C-2.66 8.67 -3.32 8.34 -4 8 C-4 6.68 -4 5.36 -4 4 C-7.28860994 3.45855484 -10.58111592 2.94578804 -13.875 2.4375 C-14.7928125 2.28603516 -15.710625 2.13457031 -16.65625 1.97851562 C-23.01532669 1.01569768 -28.64772267 1.09206625 -35 2 C-36.49196583 2.18022998 -37.9841469 2.35868931 -39.4765625 2.53515625 C-40.85953882 2.70964392 -42.24235501 2.885406 -43.625 3.0625 C-44.34300781 3.15337891 -45.06101562 3.24425781 -45.80078125 3.33789062 C-47.53400173 3.55743189 -49.26702361 3.77854024 -51 4 C-51.33 5.65 -51.66 7.3 -52 9 C-53.32 8.67 -54.64 8.34 -56 8 C-55.67 5.36 -55.34 2.72 -55 0 C-35.79920663 -4.13369499 -19.15520686 -5.33096852 0 0 Z " fill="#EEA417" transform="translate(67,11)"/>
<path d="M0 0 C1.32 0.33 2.64 0.66 4 1 C7.34270184 29.75948019 7.34270184 29.75948019 1.97119141 38.18066406 C-3.40085713 43.68403613 -9.93633954 47.9539665 -17 51 C-17.66 51 -18.32 51 -19 51 C-17.75623242 44.62569117 -13.91668739 41.76268804 -9 38 C-8.40606445 37.74387939 -7.81212891 37.48775879 -7.20019531 37.22387695 C-4.83758432 36.04166786 -3.58612773 35.13819219 -2 33 C-0.98222264 27.78189636 -1.06325111 22.60331146 -1.125 17.3125 C-1.11827163 15.15533598 -1.1019789 12.99844188 -1.08297729 10.84135437 C-1.0708791 8.89207291 -1.08198887 6.94268872 -1.09423828 4.9934082 C-1 2 -1 2 0 0 Z " fill="#F0A516" transform="translate(64,27)"/>
<path d="M0 0 C7.425 0.99 7.425 0.99 15 2 C15 6.95 15 11.9 15 17 C8 19 8 19 0 20 C0 13.4 0 6.8 0 0 Z " fill="#2F57A3" transform="translate(40,24)"/>
<path d="M0 0 C1.98 0 3.96 0 6 0 C7.32 2.64 8.64 5.28 10 8 C12.01136276 5.44008376 13.62845496 2.95409701 15 0 C17.31 0 19.62 0 22 0 C20.70704582 3.39776332 19.19672518 6.51039185 17.4375 9.6875 C14.84174867 14.76448422 14.13239048 19.34331595 14 25 C11.69 25 9.38 25 7 25 C6.99742188 24.33355469 6.99484375 23.66710937 6.9921875 22.98046875 C6.69728949 15.95206621 4.96716861 11.28567531 1.27734375 5.3125 C0 3 0 3 0 0 Z " fill="#2D4086" transform="translate(113,15)"/>
<path d="M0 0 C2 2 2 2 2.08081055 4.89819336 C2.01676025 6.11643799 1.95270996 7.33468262 1.88671875 8.58984375 C0.82068188 22.5050942 0.82068188 22.5050942 4.47851562 35.47460938 C7.47100608 38.52397927 10.74065678 40.43455827 14.55859375 42.29296875 C18 44 18 44 19.53515625 46.05078125 C20 48 20 48 19 51 C18.30132812 50.50628906 17.60265625 50.01257813 16.8828125 49.50390625 C15.97273438 48.86324219 15.06265625 48.22257812 14.125 47.5625 C13.22007813 46.92441406 12.31515625 46.28632812 11.3828125 45.62890625 C9.12261419 44.00481862 9.12261419 44.00481862 7 43 C7 42.34 7 41.68 7 41 C6.46375 40.7525 5.9275 40.505 5.375 40.25 C4.199375 39.63125 4.199375 39.63125 3 39 C1.96858887 38.47567383 0.93717773 37.95134766 -0.12548828 37.41113281 C-3 35 -3 35 -3.58935547 31.42480469 C-3.5466585 30.00587073 -3.47065425 28.58767557 -3.3671875 27.171875 C-3.33650177 26.42286926 -3.30581604 25.67386353 -3.27420044 24.90216064 C-3.16982939 22.51572741 -3.02304387 20.13408315 -2.875 17.75 C-2.7966712 16.13034169 -2.7211179 14.5105466 -2.6484375 12.890625 C-2.46443143 8.92477859 -2.24236833 4.96269049 -2 1 C-1.34 0.67 -0.68 0.34 0 0 Z " fill="#F0A517" transform="translate(14,27)"/>
<path d="M0 0 C7.26 0 14.52 0 22 0 C18.625 10.125 18.625 10.125 16 15 C12.33333333 15 8.66666667 15 5 15 C4.16013916 13.06532058 3.32831973 11.12714871 2.5 9.1875 C2.0359375 8.10855469 1.571875 7.02960938 1.09375 5.91796875 C0 3 0 3 0 0 Z M3 2 C4 4 4 4 4 4 Z M4 4 C5 6 5 6 5 6 Z M5 6 C6 8 6 8 6 8 Z M6 9 C7 11 7 11 7 11 Z M7 11 C8 13 8 13 8 13 Z " fill="#F2A716" transform="translate(29,57)"/>
<path d="M0 0 C1.99485615 0.35060364 3.99186709 0.68614289 5.98950195 1.02050781 C7.88345703 1.34921875 7.88345703 1.34921875 9.81567383 1.68457031 C11.53814331 1.98306885 11.53814331 1.98306885 13.29541016 2.28759766 C16.17114258 2.97363281 16.17114258 2.97363281 19.17114258 4.97363281 C19.17114258 5.63363281 19.17114258 6.29363281 19.17114258 6.97363281 C11.57210645 6.51737599 4.1303107 5.55102133 -3.39135742 4.41113281 C-10.57670356 3.33084968 -17.54454664 2.51303236 -24.82885742 2.97363281 C-24.82885742 1.65363281 -24.82885742 0.33363281 -24.82885742 -1.02636719 C-16.83937769 -3.6895271 -8.01485728 -1.41503137 0 0 Z " fill="#2F539D" transform="translate(56.828857421875,18.0263671875)"/>
<path d="M0 0 C1.32 0.33 2.64 0.66 4 1 C5.25 3.5625 5.25 3.5625 6 6 C6.66 5.01 7.32 4.02 8 3 C8.66 2.01 9.32 1.02 10 0 C10.99 0 11.98 0 13 0 C13 3.96 13 7.92 13 12 C12.01 12 11.02 12 10 12 C9.67 10.68 9.34 9.36 9 8 C8.34 9.32 7.68 10.64 7 12 C5 11 5 11 4 8 C3.67 9.32 3.34 10.64 3 12 C2.01 11.67 1.02 11.34 0 11 C0 7.37 0 3.74 0 0 Z " fill="#FCE5B7" transform="translate(123,55)"/>
<path d="M0 0 C-0.33 1.32 -0.66 2.64 -1 4 C-4.20720862 4.5073957 -7.41592163 5.004579 -10.625 5.5 C-11.52863281 5.64308594 -12.43226562 5.78617188 -13.36328125 5.93359375 C-17.95439866 6.63734167 -22.33831815 7.18584778 -27 7 C-27 6.01 -27 5.02 -27 4 C-23.8148163 3.32193683 -20.62654387 2.65964849 -17.4375 2 C-16.54224609 1.80921875 -15.64699219 1.6184375 -14.72460938 1.421875 C-9.70738579 0.39270093 -5.12100455 -0.22479032 0 0 Z " fill="#2F539C" transform="translate(30,18)"/>
<path d="M0 0 C2.4375 0.8125 2.4375 0.8125 4.4375 2.8125 C4.77411952 5.9767235 4.93693411 7.99763382 3.25 10.75 C1.4375 11.8125 1.4375 11.8125 -1.125 11.625 C-3.5625 10.8125 -3.5625 10.8125 -5.5625 8.8125 C-5.89911952 5.6482765 -6.06193411 3.62736618 -4.375 0.875 C-2.5625 -0.1875 -2.5625 -0.1875 0 0 Z " fill="#FDF1D9" transform="translate(193.5625,55.1875)"/>
<path d="M0 0 C5.4 -0.36 5.4 -0.36 7.875 1.125 C9.52854531 3.88090884 9.39365568 5.85075452 9 9 C7.8125 10.875 7.8125 10.875 6 12 C3.375 12.25 3.375 12.25 1 12 C0 11 0 11 -0.09765625 8.49609375 C-0.08605469 7.48675781 -0.07445313 6.47742187 -0.0625 5.4375 C-0.05347656 4.42558594 -0.04445313 3.41367187 -0.03515625 2.37109375 C-0.02355469 1.58863281 -0.01195313 0.80617187 0 0 Z " fill="#FDEED0" transform="translate(108,55)"/>
<path d="M0 0 C2.64 0 5.28 0 8 0 C8 3.3 8 6.6 8 10 C5.36 10 2.72 10 0 10 C0 6.7 0 3.4 0 0 Z " fill="#2C4289" transform="translate(36,45)"/>
<path d="M0 0 C0 3.96 0 7.92 0 12 C-1.98 12 -3.96 12 -6 12 C-6 8.37 -6 4.74 -6 1 C-4 0 -4 0 0 0 Z " fill="#2D529D" transform="translate(52,43)"/>
<path d="M0 0 C0.99 0 1.98 0 3 0 C3.6708712 1.6232687 4.33657029 3.24867578 5 4.875 C5.556875 6.23238281 5.556875 6.23238281 6.125 7.6171875 C7 10 7 10 7 12 C6.01 11.67 5.02 11.34 4 11 C4 10.34 4 9.68 4 9 C2.35 9 0.7 9 -1 9 C-1.33 9.99 -1.66 10.98 -2 12 C-2.66 12 -3.32 12 -4 12 C-2.66666667 8 -1.33333333 4 0 0 Z " fill="#FDECCA" transform="translate(96,55)"/>
<path d="M0 0 C3.73639216 1.24546405 4.18756513 2.63404953 6 6 C6.33 4.02 6.66 2.04 7 0 C7.66 0 8.32 0 9 0 C9 3.63 9 7.26 9 11 C5 9 5 9 3 6 C2.67 7.65 2.34 9.3 2 11 C1.34 11 0.68 11 0 11 C0 7.37 0 3.74 0 0 Z " fill="#FDF4E1" transform="translate(204,55)"/>
<path d="M0 0 C1.67542976 0.28604898 3.34385343 0.61781233 5 1 C5.33 1.99 5.66 2.98 6 4 C5.34 4 4.68 4 4 4 C4 3.34 4 2.68 4 2 C2.68 2 1.36 2 0 2 C1.93254772 4.0245738 3.63158688 5.42105792 6 7 C5.67 8.32 5.34 9.64 5 11 C2.6875 11.625 2.6875 11.625 0 12 C-0.99 11.34 -1.98 10.68 -3 10 C-3 9.34 -3 8.68 -3 8 C-0.69 8.66 1.62 9.32 4 10 C2.62308038 7.24616077 0.63279958 6.48516899 -2 5 C-1.125 1.125 -1.125 1.125 0 0 Z " fill="#FDF0D5" transform="translate(222,55)"/>
<path d="M0 0 C2.00720923 0.28674418 4.0085944 0.61866701 6 1 C6 1.66 6 2.32 6 3 C3.03 2.505 3.03 2.505 0 2 C1.93254772 4.0245738 3.63158688 5.42105792 6 7 C5.67 8.65 5.34 10.3 5 12 C3.35 12 1.7 12 0 12 C-0.66 10.68 -1.32 9.36 -2 8 C-1.34 8 -0.68 8 0 8 C0 8.66 0 9.32 0 10 C1.32 10 2.64 10 4 10 C4 9.01 4 8.02 4 7 C2.02 6.34 0.04 5.68 -2 5 C-1.125 1.125 -1.125 1.125 0 0 Z " fill="#FEF4E2" transform="translate(167,55)"/>
<path d="M0 0 C2.5 0.3125 2.5 0.3125 5 1 C5.33 1.66 5.66 2.32 6 3 C3.03 2.505 3.03 2.505 0 2 C1.93254772 4.0245738 3.63158688 5.42105792 6 7 C5.67 8.32 5.34 9.64 5 11 C3.35 11.33 1.7 11.66 0 12 C-0.66 10.68 -1.32 9.36 -2 8 C-1.34 8 -0.68 8 0 8 C0 8.66 0 9.32 0 10 C1.32 10 2.64 10 4 10 C2.62308038 7.24616077 0.63279958 6.48516899 -2 5 C-1.125 1.125 -1.125 1.125 0 0 Z " fill="#FDF2DC" transform="translate(153,55)"/>
<path d="M0 0 C2.64 0 5.28 0 8 0 C7.01 3.3 6.02 6.6 5 10 C4.01 9.67 3.02 9.34 2 9 C1.26953125 6.93359375 1.26953125 6.93359375 0.8125 4.4375 C0.65394531 3.61121094 0.49539062 2.78492187 0.33203125 1.93359375 C0.16767578 0.97646484 0.16767578 0.97646484 0 0 Z " fill="#2D4085" transform="translate(36,73)"/>
<path d="M0 0 C1.67542976 0.28604898 3.34385343 0.61781233 5 1 C4.67 3.31 4.34 5.62 4 8 C2.35 7.67 0.7 7.34 -1 7 C-1.04254356 5.00045254 -1.04080783 2.99958364 -1 1 C-0.67 0.67 -0.34 0.34 0 0 Z " fill="#F6B02C" transform="translate(191,57)"/>
<path d="M0 0 C2.57039049 0.985758 3.75768787 1.51537575 5.01171875 4.0234375 C5.23472656 4.79945312 5.45773438 5.57546875 5.6875 6.375 C6.03361328 7.53128906 6.03361328 7.53128906 6.38671875 8.7109375 C6.94704364 10.80234124 7.48618386 12.89671524 8 15 C7.01 15 6.02 15 5 15 C4.16013916 13.06532058 3.32831973 11.12714871 2.5 9.1875 C2.0359375 8.10855469 1.571875 7.02960938 1.09375 5.91796875 C0 3 0 3 0 0 Z " fill="#DD9B1E" transform="translate(29,57)"/>
<path d="M0 0 C0.99 0 1.98 0 3 0 C3 3.3 3 6.6 3 10 C1.68 10 0.36 10 -1 10 C-1.02689216 8.52093108 -1.04634621 7.04172517 -1.0625 5.5625 C-1.07410156 4.73878906 -1.08570313 3.91507813 -1.09765625 3.06640625 C-1 1 -1 1 0 0 Z " fill="#2C519C" transform="translate(41,45)"/>
<path d="M0 0 C2.475 0.495 2.475 0.495 5 1 C5 2.98 5 4.96 5 7 C3.35 7.33 1.7 7.66 0 8 C0 5.36 0 2.72 0 0 Z " fill="#F7B435" transform="translate(110,57)"/>
<path d="M0 0 C0.99 0 1.98 0 3 0 C3 3.96 3 7.92 3 12 C2.01 11.67 1.02 11.34 0 11 C0 7.37 0 3.74 0 0 Z " fill="#FBE1AD" transform="translate(179,55)"/>
<path d="M0 0 C0.99 0 1.98 0 3 0 C4.125 4.75 4.125 4.75 3 7 C1.35 7 -0.3 7 -2 7 C-1.34 4.69 -0.68 2.38 0 0 Z " fill="#FBE0AD" transform="translate(96,55)"/>
<path d="M0 0 C0.99 0 1.98 0 3 0 C2.67 3.96 2.34 7.92 2 12 C1.34 11.67 0.68 11.34 0 11 C0 7.37 0 3.74 0 0 Z " fill="#FCE9C5" transform="translate(123,55)"/>
<path d="M0 0 C2.31 0 4.62 0 7 0 C6.67 1.65 6.34 3.3 6 5 C4.02 4.01 2.04 3.02 0 2 C0 1.34 0 0.68 0 0 Z " fill="#F6B02B" transform="translate(153,57)"/>
<path d="M0 0 C0.66 0 1.32 0 2 0 C2 0.66 2 1.32 2 2 C3.32 2 4.64 2 6 2 C6.33 1.34 6.66 0.68 7 0 C7.33 0.99 7.66 1.98 8 3 C7 4 7 4 4.4375 4.0625 C3.2309375 4.0315625 3.2309375 4.0315625 2 4 C1.34 2.68 0.68 1.36 0 0 Z " fill="#FDECCA" transform="translate(165,63)"/>
<path d="M0 0 C2.31 0 4.62 0 7 0 C7 0.66 7 1.32 7 2 C6.34 2 5.68 2 5 2 C5 2.66 5 3.32 5 4 C2.525 3.01 2.525 3.01 0 2 C0 1.34 0 0.68 0 0 Z " fill="#F7B436" transform="translate(167,57)"/>
</svg>
